<?xml version="1.0" standalone="no"?>
<!DOCTYPE svg PUBLIC "-//W3C//DTD SVG 20010904//EN"
 "http://www.w3.org/TR/2001/REC-SVG-20010904/DTD/svg10.dtd">
<svg version="1.0" xmlns="http://www.w3.org/2000/svg"
 width="436.000000pt" height="76.000000pt" viewBox="0 0 436.000000 76.000000"
 preserveAspectRatio="xMidYMid meet">

<g transform="translate(0.000000,76.000000) scale(0.100000,-0.100000)"
fill="#000000" stroke="none">
<path d="M277 728 c-9 -7 -50 -112 -91 -233 -40 -121 -91 -271 -112 -333 -38
-111 -39 -114 -20 -128 27 -20 1323 -21 1349 -1 9 6 34 64 55 127 22 63 72
212 112 331 41 120 70 223 67 233 -6 15 -63 16 -675 16 -519 0 -672 -3 -685
-12z m363 -73 c10 -13 8 -30 -15 -98 -15 -45 -33 -95 -40 -112 -6 -16 -29 -84
-50 -150 -51 -156 -60 -165 -171 -165 -69 0 -84 3 -84 15 0 18 153 474 170
504 9 19 20 21 94 21 62 0 87 -4 96 -15z m400 7 c0 -9 -39 -127 -118 -357
l-58 -170 -37 -3 c-25 -2 -37 1 -37 10 0 11 141 428 169 501 9 22 17 27 46 27
19 0 35 -4 35 -8z m-222 -260 c2 -12 -6 -51 -18 -87 l-21 -64 -66 -3 c-63 -3
-67 -4 -76 -32 -12 -36 3 -47 58 -44 34 2 40 0 40 -17 0 -18 -8 -20 -87 -23
-118 -4 -120 1 -72 145 47 143 60 155 163 151 70 -3 76 -5 79 -26z m382 13
c12 -15 11 -20 -57 -213 l-26 -73 -91 3 c-88 3 -91 4 -94 28 -5 33 13 91 39
124 17 22 28 26 69 26 39 0 52 4 64 22 32 45 22 58 -44 58 -43 0 -60 4 -60 13
0 24 12 27 100 27 65 0 91 -4 100 -15z m228 -2 c-2 -13 -15 -19 -46 -21 -49
-4 -47 -1 -104 -162 l-33 -95 -38 -3 c-20 -2 -37 1 -37 6 0 6 18 63 40 128 51
149 65 164 156 164 57 0 65 -2 62 -17z"/>
<path d="M522 618 c-21 -27 -64 -170 -53 -181 20 -20 37 2 64 84 31 95 33 109
13 109 -7 0 -18 -6 -24 -12z"/>
<path d="M435 373 c-9 -23 -65 -186 -65 -190 0 -2 11 -3 24 -3 22 0 28 10 55
93 17 50 31 98 31 105 0 19 -37 14 -45 -5z"/>
<path d="M685 360 c-21 -41 -19 -70 4 -70 13 0 24 13 35 40 21 52 20 60 -4 60
-11 0 -26 -12 -35 -30z"/>
<path d="M1036 258 c-8 -13 -18 -35 -21 -50 -6 -25 -4 -28 17 -28 20 0 27 7
37 40 17 59 -4 83 -33 38z"/>
<path d="M1804 631 c5 -7 -21 -109 -39 -153 -6 -14 -2 -18 16 -18 22 0 26 8
43 80 16 68 22 81 42 86 39 10 44 -2 25 -69 -10 -34 -22 -70 -26 -79 -6 -15
-2 -18 19 -18 20 0 26 5 26 23 0 12 11 52 24 90 l23 67 -79 0 c-44 0 -77 -4
-74 -9z"/>
<path d="M1997 563 c-10 -43 -21 -84 -24 -90 -3 -8 4 -13 20 -13 20 0 24 5 25
30 1 41 9 50 41 50 56 0 84 72 35 90 -14 6 -37 10 -52 10 -26 0 -28 -5 -45
-77z m83 34 c0 -23 -17 -47 -32 -47 -9 0 -11 32 -2 54 9 24 34 19 34 -7z"/>
<path d="M2175 608 c-64 -60 -55 -148 15 -148 74 0 141 119 92 163 -29 27 -68
21 -107 -15z m78 -31 c-2 -69 -46 -128 -75 -99 -16 16 -1 96 24 127 32 41 53
29 51 -28z"/>
<path d="M2356 605 c-4 -19 -15 -59 -25 -90 l-18 -55 28 0 c19 0 27 4 24 13
-3 7 15 35 40 62 l44 50 -15 -55 c-9 -30 -18 -58 -21 -62 -2 -5 7 -8 20 -8 21
0 25 7 37 58 6 31 18 72 26 90 13 32 13 32 -16 32 -20 0 -28 -4 -25 -13 3 -7
-15 -35 -39 -62 l-45 -50 13 52 c8 28 17 56 20 62 5 7 -2 11 -17 11 -20 0 -26
-6 -31 -35z"/>
<path d="M2547 634 c-14 -14 -7 -26 8 -14 12 10 19 10 27 2 14 -14 -5 -62 -23
-62 -7 0 -5 -8 5 -19 33 -37 -2 -82 -47 -60 -22 10 -22 10 -2 -6 28 -22 64
-15 89 18 19 26 19 28 3 44 -16 16 -15 18 5 40 18 19 20 28 12 41 -11 18 -64
28 -77 16z"/>
<path d="M2684 631 c3 -5 -5 -45 -18 -90 l-24 -81 42 0 c56 0 90 19 94 53 2
17 -2 29 -11 33 -12 4 -10 10 9 29 39 39 14 65 -64 65 -18 0 -31 -4 -28 -9z
m69 -13 c6 -20 -4 -46 -20 -53 -23 -8 -25 -2 -12 33 11 33 24 41 32 20z m-15
-98 c3 -15 -3 -29 -14 -37 -35 -25 -44 -9 -24 42 12 31 34 28 38 -5z"/>
<path d="M2855 608 c-64 -60 -55 -148 15 -148 74 0 141 119 92 163 -29 27 -68
21 -107 -15z m83 -18 c5 -61 -51 -141 -79 -113 -17 17 -3 96 23 128 28 36 52
29 56 -15z"/>
<path d="M3050 618 c0 -32 -44 -123 -67 -139 -11 -8 -22 -22 -26 -32 -6 -17
-5 -17 15 -2 25 17 128 21 128 5 0 -5 5 -10 10 -10 7 0 9 13 5 33 -3 20 3 56
18 100 l24 67 -54 0 c-48 0 -53 -2 -53 -22z m52 -13 c-2 -11 -10 -44 -18 -72
-12 -41 -21 -54 -39 -59 -40 -10 -43 3 -15 59 15 29 29 63 33 76 7 29 44 25
39 -4z"/>
<path d="M3231 627 c-62 -32 -85 -114 -42 -149 24 -19 76 -25 85 -9 3 4 -5 6
-18 4 -37 -7 -59 32 -45 81 19 67 63 94 101 59 17 -15 18 -15 18 3 0 16 -8 20
-37 22 -21 1 -49 -4 -62 -11z"/>
<path d="M3357 633 c-4 -3 -7 -12 -7 -20 0 -11 4 -11 20 -1 32 20 34 3 8 -76
l-24 -76 28 0 c17 0 27 4 23 10 -9 15 34 150 48 150 7 0 18 -5 25 -12 9 -9 12
-7 12 10 0 20 -5 22 -63 22 -35 0 -67 -3 -70 -7z"/>
<path d="M3540 621 c0 -10 -10 -50 -23 -90 l-23 -71 32 0 c60 0 95 12 106 36
9 19 8 28 -5 42 -15 17 -15 19 3 35 40 34 14 67 -54 67 -29 0 -36 -4 -36 -19z
m68 -18 c3 -20 -23 -51 -34 -40 -3 3 -3 20 1 37 7 34 28 36 33 3z m-10 -80 c2
-15 -5 -27 -23 -39 -33 -22 -40 -14 -25 31 13 40 43 45 48 8z"/>
<path d="M3719 617 c-71 -48 -73 -148 -2 -155 58 -6 113 51 113 117 0 60 -52
78 -111 38z m73 -4 c6 -26 -10 -91 -28 -119 -17 -25 -48 -32 -59 -14 -10 17 4
83 25 118 21 35 56 43 62 15z"/>
<path d="M2519 291 c-31 -30 -39 -46 -39 -74 0 -91 108 -88 155 3 20 39 19 66
-5 90 -31 31 -67 25 -111 -19z m88 12 c8 -21 -14 -103 -34 -125 -9 -10 -24
-18 -35 -18 -14 0 -18 8 -18 34 0 82 66 164 87 109z"/>
<path d="M4056 311 c-38 -25 -55 -57 -56 -102 0 -43 15 -59 56 -59 39 0 82 33
100 77 34 79 -28 131 -100 84z m69 -11 c14 -44 -30 -140 -66 -140 -16 0 -19 7
-19 40 0 81 66 159 85 100z"/>
<path d="M1795 253 c-10 -38 -22 -76 -27 -85 -7 -15 -4 -18 21 -18 20 0 29 4
26 13 -3 6 3 41 13 77 15 53 23 66 41 68 12 2 28 -1 35 -7 10 -9 15 -8 20 4 4
12 -5 15 -53 15 l-58 0 -18 -67z"/>
<path d="M1962 263 c-7 -32 -18 -70 -26 -85 -15 -28 -14 -28 15 -28 21 0 29 5
29 18 0 10 18 36 41 57 l40 40 -6 -30 c-4 -16 -13 -42 -20 -57 -13 -27 -13
-28 16 -28 17 0 28 4 25 8 -5 8 27 133 39 152 4 6 -5 10 -19 10 -14 0 -26 -6
-26 -12 -1 -15 -80 -105 -80 -91 0 5 6 31 14 56 14 46 14 47 -8 47 -19 0 -24
-9 -34 -57z"/>
<path d="M2187 268 c-9 -28 -12 -47 -8 -42 5 5 14 26 21 47 8 26 17 37 31 37
23 0 23 0 1 -80 -18 -61 -21 -65 -50 -68 -35 -4 -37 -1 -21 31 7 12 -4 4 -25
-17 -37 -41 -50 -72 -18 -43 25 23 120 24 129 1 4 -12 8 -13 14 -3 4 7 4 18
-1 24 -6 7 -1 40 14 88 l24 77 -47 0 -47 0 -17 -52z"/>
<path d="M2360 307 c0 -8 -10 -46 -23 -86 l-23 -71 27 0 c20 0 27 4 23 13 -3
8 0 26 5 40 8 21 17 27 39 27 35 0 65 30 60 62 -3 20 -9 23 -55 26 -41 2 -53
0 -53 -11z m68 -23 c-3 -26 -31 -54 -43 -43 -3 3 0 20 6 37 14 40 42 44 37 6z"/>
<path d="M2678 235 l-25 -85 63 0 c50 0 65 -4 73 -17 9 -17 10 -17 16 -1 4 9
4 22 1 27 -6 9 14 103 30 146 4 10 0 15 -13 15 -15 0 -24 -16 -44 -77 -17 -57
-29 -79 -43 -81 -33 -7 -38 12 -20 74 9 33 19 65 21 72 3 7 -3 12 -14 12 -16
0 -24 -17 -45 -85z"/>
<path d="M2892 263 c-7 -32 -18 -70 -26 -85 -15 -28 -14 -28 15 -28 21 0 29 5
29 18 0 10 18 36 41 57 l40 40 -6 -30 c-4 -16 -13 -42 -20 -57 -13 -27 -13
-28 16 -28 17 0 28 4 25 8 -5 8 27 133 39 152 4 6 -5 10 -19 10 -14 0 -26 -6
-26 -12 -1 -15 -80 -105 -80 -91 0 5 6 31 14 56 14 46 14 47 -8 47 -19 0 -24
-9 -34 -57z"/>
<path d="M3105 247 c-18 -64 -22 -72 -42 -69 -16 2 -23 -2 -23 -13 0 -11 7
-15 23 -13 18 2 26 17 47 81 21 66 28 77 47 77 13 0 23 -6 23 -13 0 -22 -31
-121 -42 -134 -8 -10 -3 -13 21 -13 25 0 31 4 31 23 0 12 9 50 19 85 l19 62
-51 0 -52 0 -20 -73z"/>
<path d="M3275 253 c-10 -38 -22 -76 -27 -85 -7 -15 -4 -18 21 -18 20 0 29 4
26 13 -2 6 13 32 35 57 43 49 50 41 25 -29 l-14 -41 29 0 c21 0 28 4 24 14 -4
11 15 95 33 144 11 27 -33 10 -55 -22 -12 -18 -33 -43 -46 -55 l-24 -23 10 44
c6 23 15 49 21 56 7 9 3 12 -15 12 -22 0 -27 -7 -43 -67z"/>
<path d="M3481 261 c-7 -33 -19 -71 -27 -85 -12 -25 -12 -26 17 -26 24 0 29 4
29 24 0 42 11 56 41 56 27 0 29 -2 23 -27 -4 -16 -11 -34 -17 -40 -7 -10 -2
-13 19 -13 24 0 29 4 31 28 1 15 11 53 21 85 l19 57 -22 0 c-18 0 -24 -7 -29
-35 -6 -31 -11 -35 -36 -35 -33 0 -35 6 -20 44 8 23 7 26 -13 26 -20 0 -25 -8
-36 -59z"/>
<path d="M3712 294 c-1 -14 -7 -34 -13 -45 -6 -12 -8 -23 -6 -25 3 -3 13 15
22 40 12 32 23 46 36 46 23 0 23 -2 3 -71 -20 -66 -30 -79 -60 -79 -27 0 -28
3 -13 32 6 12 -4 5 -25 -15 -37 -37 -52 -75 -18 -44 26 24 117 23 131 0 7 -13
9 -7 9 27 0 25 9 71 20 103 l19 57 -51 0 c-48 0 -52 -2 -54 -26z"/>
<path d="M3865 253 c-10 -38 -22 -76 -27 -85 -7 -15 -4 -18 21 -18 21 0 29 4
25 13 -3 8 0 26 5 40 8 21 17 27 39 27 30 0 62 26 62 51 0 26 -23 39 -66 39
l-41 0 -18 -67z m85 34 c0 -26 -17 -47 -37 -47 -10 0 -11 8 -7 28 9 37 13 42
30 42 8 0 14 -10 14 -23z"/>
<path d="M4205 248 c-10 -40 -22 -79 -28 -85 -7 -10 1 -13 36 -13 25 0 57 4
70 9 32 13 44 47 23 70 -14 15 -13 18 5 29 26 17 22 56 -7 60 -18 3 -21 -1
-17 -21 3 -14 -2 -29 -11 -37 -23 -18 -32 -4 -19 30 10 28 10 30 -11 30 -19 0
-25 -10 -41 -72z m70 -19 c12 -18 -4 -57 -26 -64 -28 -9 -30 -5 -18 38 10 36
31 48 44 26z"/>
</g>
</svg>
